<?xml version="1.0" encoding="UTF-8"?>
<svg width="1024" height="1024" fill="none" version="1.1" viewBox="0 0 1024 1024" xmlns="http://www.w3.org/2000/svg"><g clip-path="url(#b)" opacity="0"><g stroke="#e1e4e8" stroke-width="6"><path d="m855-1v1025"/><path d="m684-1v1025"/><path d="m513-1v1025"/><path d="m342-1v1025"/><path d="m171-1v1025"/><path d="m1024 854h-1025"/><path d="m1024 683h-1025"/><path d="m1024 512h-1025"/><path d="m1024 341h-1025"/><path d="m1024 170h-1025"/></g><g stroke="#d1d5da" stroke-width="12"><path d="m743 511.5c0 127.87-103.43 231.5-231 231.5s-231-103.63-231-231.5 103.43-231.5 231-231.5 231 103.63 231 231.5z"/><circle cx="512" cy="512" r="113"/><circle cx="512" cy="512" r="301"/></g></g><defs><clipPath id="b"><rect width="1024" height="1024" fill="#fff"/></clipPath><filter id="a" x="-.05625" y="-.064285" width="1.132" height="1.1531" color-interpolation-filters="sRGB"><feFlood flood-color="rgb(0,0,0)" flood-opacity=".35" result="flood"/><feComposite in="flood" in2="SourceGraphic" operator="in" result="composite1"/><feGaussianBlur in="composite1" result="blur" stdDeviation="12"/><feOffset dx="10" dy="11" result="offset"/><feComposite in="SourceGraphic" in2="offset" result="composite2"/></filter></defs><g transform="matrix(.97862 0 0 .97862 260.81 228.54)" fill="#fff" filter="url(#a)"><path d="m512 287.9-4e-3 112c-0.896 44.2-35.896 80.1-79.996 80.1-26.47 0-48-21.56-48-48.06v-127.84c0-26.5 21.5-48.1 48-48.1 10.83 0 20.91 2.723 30.3 6.678-12.6-103.58-100.2-182.55-206.3-182.55s-193.71 78.97-206.3 182.57c9.39-4 19.47-6.7 30.3-6.7 26.5 0 48 21.6 48 48.1v127.9c0 26.4-21.5 48-48 48-44.11 0-79.1-35.88-79.1-80.06l-0.9-111.94c0-141.2 114.8-256 256-256 140.9 0 256.5 114.56 256 255.36 0 0.2 0 0-2e-3 0.54451z"/><path d="m364 347v-138.86c0-12.782-10.366-23.143-23.143-23.143h-146.57c-25.563 0-46.286 20.723-46.286 46.286v154.29c0 25.563 20.723 46.286 46.286 46.286h154.29c8.5195 0 15.429-6.9091 15.429-14.995 0-5.6507-3.1855-10.376-7.7143-13.066v-39.227c4.725-4.6479 7.7143-10.723 7.7143-17.569zm-147.01-100.29h92.572c4.6768 0 8.1482 3.4714 8.1482 7.7143s-3.4714 7.7143-7.7143 7.7143h-93.006c-3.8089 0-7.2804-3.4714-7.2804-7.7143s3.4714-7.7143 7.2804-7.7143zm0 30.857h92.572c4.6768 0 8.1482 3.4714 8.1482 7.7143s-3.4714 7.7143-7.7143 7.7143h-93.006c-3.8089 0-7.2804-3.4714-7.2804-7.7143s3.4714-7.7143 7.2804-7.7143zm116.15 123.43h-138.86c-8.5195 0-15.429-6.9091-15.429-15.429 0-8.5195 6.9091-15.429 15.429-15.429h138.86z"/></g></svg>
